<?xml version="1.0" encoding="utf-8"?>
<!-- Generator: Adobe Illustrator 27.1.1, SVG Export Plug-In . SVG Version: 6.00 Build 0)  -->
<svg version="1.1" id="Layer_1" xmlns="http://www.w3.org/2000/svg" xmlns:xlink="http://www.w3.org/1999/xlink" x="0px" y="0px"
	 viewBox="0 0 1366 768" style="enable-background:new 0 0 1366 768;" xml:space="preserve">
<g>
	<path d="M412.43,274.51c-0.35-0.2-0.62-0.48-0.81-0.84s-0.29-0.71-0.32-1.04c0.04-0.28,0.11-0.5,0.22-0.66s0.24-0.29,0.4-0.39
		s0.31-0.18,0.47-0.23s0.32-0.1,0.47-0.13l0.26,0.09c0.06,0.06,0.12,0.11,0.18,0.16s0.13,0.09,0.18,0.14
		c0.12-0.05,0.19-0.12,0.22-0.21s0.06-0.19,0.1-0.28c0.04-0.13,0.08-0.26,0.12-0.39s0.11-0.26,0.18-0.39
		c-0.01-0.11-0.01-0.2,0.02-0.28s0.05-0.15,0.07-0.21c-0.07-0.06-0.12-0.09-0.15-0.1s-0.08-0.02-0.15-0.04c-0.04,0-0.07,0-0.11-0.01
		s-0.08-0.01-0.12-0.03c-0.18-0.13-0.29-0.24-0.34-0.33s-0.11-0.18-0.17-0.27s-0.11-0.18-0.16-0.25s-0.1-0.13-0.16-0.19l-0.21-0.14
		l0.11-0.21c0.02-0.02,0.04-0.06,0.04-0.1s-0.02-0.1-0.07-0.18c-0.04-0.15-0.04-0.26-0.02-0.33l0.04-0.21
		c0.12-0.15,0.18-0.24,0.19-0.26l0.18-0.18c0.27-0.07,0.54-0.15,0.83-0.24s0.56-0.18,0.83-0.27s0.54-0.19,0.83-0.28
		s0.56-0.18,0.84-0.25c0.09-0.08,0.2-0.13,0.31-0.15s0.21-0.03,0.31-0.04c0.08,0,0.16-0.01,0.23-0.02s0.12-0.04,0.16-0.09
		c0.2-0.07,0.39-0.13,0.58-0.18c0.35-0.09,0.81-0.21,1.39-0.33s1.22-0.22,1.93-0.28l0.37-0.02c0.07,0.01,0.14,0.01,0.21,0.01
		s0.14-0.01,0.21-0.01c0.61,0,1.01,0.19,1.21,0.56c0.12,0.06,0.22,0.13,0.32,0.22s0.18,0.17,0.26,0.25
		c0.06,0.06,0.11,0.11,0.16,0.15s0.09,0.07,0.12,0.1l0.14,0.14c0.13,0.28,0.15,0.56,0.07,0.83c-0.07,0.14-0.15,0.22-0.23,0.25
		s-0.16,0.05-0.25,0.07l-0.23,0.12c-0.15-0.01-0.27-0.02-0.34-0.02s-0.16,0-0.25,0c-0.35,0-0.76,0.02-1.22,0.06s-0.93,0.1-1.42,0.18
		s-0.95,0.17-1.41,0.28s-0.86,0.23-1.2,0.36c-0.09,0.07-0.22,0.13-0.37,0.19c-0.04,0.01-0.09,0.04-0.16,0.09
		c0.01,0.09,0.01,0.18,0,0.27s-0.03,0.17-0.05,0.25c-0.01,0.06-0.02,0.12-0.03,0.18s-0.01,0.13-0.03,0.2
		c-0.25,0.29-0.36,0.64-0.35,1.04l-0.09,0.18c-0.05,0.05-0.08,0.11-0.11,0.2s-0.03,0.18-0.01,0.27l0.07,0.21
		c0.23-0.02,0.47-0.05,0.69-0.08s0.47-0.06,0.73-0.1c0.33-0.06,0.66-0.11,0.99-0.15s0.68-0.06,1.05-0.06h0.69l-0.16,0.16l0.19,0.02
		l-0.11,0.28c0.08,0.04,0.14,0.06,0.18,0.08s0.08,0.04,0.11,0.06l0.12,0.18c0.06,0.04,0.11,0.09,0.16,0.17s0.08,0.18,0.09,0.31
		l-0.05,0.18l-0.83,1.05l-0.11,0.14l-0.18-0.05c-0.22-0.01-0.43,0.01-0.63,0.07c-0.09,0.02-0.19,0.05-0.3,0.08s-0.21,0.04-0.32,0.04
		c-0.28,0.05-0.52,0.08-0.7,0.11s-0.38,0.06-0.56,0.08c-0.26,0.05-0.51,0.09-0.75,0.13s-0.47,0.1-0.68,0.18
		c-0.13,0.01-0.21,0.01-0.23,0.01s-0.05-0.01-0.07-0.01c-0.12,0-0.23,0.02-0.35,0.05s-0.23,0.07-0.33,0.11
		c-0.07,0.06-0.12,0.12-0.14,0.18s-0.05,0.13-0.07,0.2c-0.02,0.08-0.06,0.16-0.1,0.24s-0.09,0.16-0.15,0.24l0.02,0.32
		c-0.11,0.02-0.16,0.04-0.16,0.04s-0.01,0.01-0.02,0.01c0,0.09-0.01,0.18-0.04,0.26s-0.06,0.16-0.08,0.23
		c-0.02,0.05-0.04,0.09-0.05,0.12s-0.02,0.07-0.02,0.11c0.12,0.21,0.15,0.45,0.09,0.72c-0.05,0.22-0.13,0.42-0.26,0.59
		s-0.28,0.3-0.46,0.4c-0.19,0.02-0.33,0.02-0.41-0.02s-0.18-0.07-0.27-0.11c-0.06-0.02-0.12-0.04-0.18-0.06s-0.12-0.03-0.18-0.04
		l-0.21-0.18c-0.04-0.07-0.08-0.14-0.12-0.2s-0.09-0.13-0.14-0.2c-0.06-0.08-0.12-0.16-0.18-0.25s-0.11-0.18-0.16-0.28
		c-0.08-0.41-0.1-0.75-0.04-1.03s0.13-0.55,0.22-0.82c0.02-0.09,0.05-0.18,0.07-0.26S412.41,274.61,412.43,274.51z"/>
	<path d="M432.38,268.08c0.02,0.26,0.06,0.48,0.12,0.67s0.12,0.37,0.19,0.54c0.06,0.16,0.11,0.33,0.17,0.48s0.09,0.35,0.11,0.57
		c-0.09,0.3-0.16,0.59-0.2,0.84s-0.08,0.53-0.13,0.81c-0.19,0.41-0.37,0.77-0.54,1.09s-0.32,0.59-0.42,0.83
		c-0.06,0.06-0.11,0.13-0.15,0.2s-0.08,0.16-0.13,0.24c-0.02,0.04-0.05,0.09-0.09,0.16s-0.06,0.12-0.09,0.14l-0.35-0.12l-0.07,0.44
		l-0.25,0.07l-0.18,0.21c-0.22,0.39-0.46,0.71-0.7,0.98s-0.52,0.5-0.83,0.7s-0.66,0.4-1.05,0.57s-0.83,0.37-1.33,0.58
		c-0.2-0.02-0.37-0.04-0.52-0.04s-0.28-0.01-0.41-0.03c-0.22,0-0.5-0.02-0.83-0.05c-0.04-0.09-0.09-0.16-0.16-0.19
		s-0.13-0.05-0.19-0.05c-0.2-0.09-0.35-0.23-0.45-0.41s-0.2-0.38-0.29-0.59c-0.06-0.13-0.12-0.25-0.18-0.36s-0.12-0.23-0.19-0.34
		l0.3-0.09l-0.39-0.42c-0.02-0.04-0.05-0.07-0.09-0.1s-0.06-0.06-0.09-0.1l-0.02-0.28c-0.04-0.81-0.05-1.55-0.04-2.22
		s0.1-1.27,0.27-1.8v-0.19c0.04-0.26,0.07-0.47,0.11-0.64s0.06-0.33,0.09-0.48c0.04-0.26,0.09-0.5,0.16-0.72
		c0.16-0.04,0.29-0.1,0.37-0.2s0.15-0.19,0.21-0.27c0.16-0.01,0.28,0.01,0.33,0.07s0.12,0.15,0.18,0.28
		c0.06,0.11,0.13,0.22,0.22,0.35s0.22,0.23,0.4,0.3c0.02,0.09,0.06,0.19,0.1,0.29s0.08,0.21,0.13,0.33c0.09,0.2,0.18,0.41,0.25,0.62
		s0.12,0.42,0.13,0.62c-0.12,0.22-0.21,0.48-0.27,0.77s-0.11,0.59-0.12,0.89s-0.01,0.59,0.02,0.86s0.08,0.51,0.15,0.69l0.11,0.23
		l0.3-0.04c0.35-0.09,0.67-0.2,0.96-0.31s0.55-0.24,0.8-0.4s0.48-0.33,0.7-0.54s0.46-0.44,0.7-0.71s0.46-0.58,0.64-0.92
		s0.33-0.71,0.46-1.08s0.22-0.75,0.28-1.12s0.11-0.72,0.13-1.05c0.2-0.07,0.3-0.21,0.3-0.42l-0.04-0.19c-0.05-0.07-0.05-0.15,0-0.25
		c0.07-0.22,0.23-0.39,0.49-0.51c0.19,0.12,0.35,0.25,0.5,0.39S432.26,267.94,432.38,268.08z"/>
	<path d="M437.18,277.89c-0.33,0.11-0.69,0.21-1.07,0.32s-0.77,0.16-1.16,0.16c-0.59,0-1.05-0.15-1.39-0.44
		c-0.06-0.13-0.11-0.22-0.16-0.26c-0.04-0.05-0.07-0.1-0.1-0.15s-0.05-0.13-0.06-0.22c-0.14-0.16-0.25-0.35-0.33-0.57
		s-0.14-0.44-0.17-0.67s-0.04-0.46-0.02-0.69s0.06-0.46,0.11-0.67c0.02-0.05,0.04-0.09,0.04-0.14s0.01-0.1,0.03-0.16
		c0.05-0.19,0.1-0.37,0.15-0.54s0.13-0.33,0.22-0.46c-0.05-0.11-0.05-0.22,0-0.35s0.1-0.25,0.16-0.35c0.16-0.45,0.3-0.82,0.41-1.13
		s0.23-0.62,0.34-0.92c0.2-0.53,0.39-1.05,0.56-1.56s0.33-1.07,0.47-1.67c0.09-0.06,0.16-0.1,0.21-0.12
		c0.07-0.02,0.13-0.04,0.18-0.05c0.21,0.11,0.46,0.21,0.74,0.31s0.52,0.15,0.7,0.15c0.09,0.06,0.15,0.1,0.18,0.13
		s0.05,0.06,0.07,0.08c0.13,0.15,0.24,0.31,0.33,0.47s0.12,0.37,0.09,0.62c-0.07,0.11-0.12,0.16-0.16,0.16
		c-0.06,0.23-0.12,0.43-0.18,0.6s-0.13,0.33-0.2,0.49c-0.08,0.18-0.16,0.35-0.23,0.53s-0.13,0.39-0.18,0.65
		c-0.05,0.06-0.08,0.11-0.1,0.16s-0.04,0.1-0.06,0.16s-0.05,0.12-0.08,0.18s-0.07,0.12-0.13,0.17c-0.04,0.3-0.09,0.55-0.17,0.74
		s-0.16,0.38-0.24,0.56c-0.14,0.34-0.27,0.68-0.38,1.02s-0.18,0.73-0.2,1.16c0.06-0.02,0.11-0.04,0.17-0.04s0.1,0,0.15,0
		c0.11,0,0.23,0.02,0.37,0.05c0.35-0.19,0.74-0.3,1.15-0.33s0.83-0.06,1.24-0.07c0.16,0,0.33,0,0.49,0s0.32-0.01,0.46-0.04
		c0.11,0.06,0.17,0.09,0.2,0.1s0.07,0.01,0.13,0.01c0.08,0,0.15,0.01,0.21,0.02c0.14,0.13,0.28,0.22,0.4,0.28s0.26,0.11,0.4,0.16
		c0.13,0.05,0.25,0.1,0.38,0.15s0.24,0.13,0.36,0.22l0.12,0.76c0.08,0.11,0.12,0.18,0.11,0.21c0,0.09-0.02,0.16-0.07,0.21l0.04,0.19
		c-0.18,0.04-0.3,0.08-0.36,0.12s-0.13,0.1-0.18,0.16c-0.09,0.01-0.16,0.02-0.2,0.02s-0.08,0-0.11,0c-0.16,0-0.36,0.03-0.6,0.09
		c-0.32-0.11-0.64-0.16-0.98-0.16c-0.13,0-0.26,0.01-0.4,0.02s-0.28,0.02-0.42,0.04c-0.14,0.02-0.28,0.04-0.43,0.05
		s-0.3,0.02-0.45,0.02L437.18,277.89z"/>
	<path d="M446.78,277.89c-0.33,0.11-0.69,0.21-1.07,0.32s-0.77,0.16-1.16,0.16c-0.59,0-1.05-0.15-1.39-0.44
		c-0.06-0.13-0.11-0.22-0.16-0.26c-0.04-0.05-0.07-0.1-0.1-0.15s-0.05-0.13-0.06-0.22c-0.14-0.16-0.25-0.35-0.33-0.57
		s-0.14-0.44-0.17-0.67s-0.04-0.46-0.02-0.69s0.06-0.46,0.11-0.67c0.02-0.05,0.04-0.09,0.04-0.14s0.01-0.1,0.03-0.16
		c0.05-0.19,0.1-0.37,0.15-0.54s0.13-0.33,0.22-0.46c-0.05-0.11-0.05-0.22,0-0.35s0.1-0.25,0.16-0.35c0.16-0.45,0.3-0.82,0.41-1.13
		s0.23-0.62,0.34-0.92c0.2-0.53,0.39-1.05,0.56-1.56s0.33-1.07,0.47-1.67c0.09-0.06,0.16-0.1,0.21-0.12
		c0.07-0.02,0.13-0.04,0.18-0.05c0.21,0.11,0.46,0.21,0.74,0.31s0.52,0.15,0.7,0.15c0.09,0.06,0.15,0.1,0.18,0.13
		s0.05,0.06,0.07,0.08c0.13,0.15,0.24,0.31,0.33,0.47s0.12,0.37,0.09,0.62c-0.07,0.11-0.12,0.16-0.16,0.16
		c-0.06,0.23-0.12,0.43-0.18,0.6s-0.13,0.33-0.2,0.49c-0.08,0.18-0.16,0.35-0.23,0.53s-0.13,0.39-0.18,0.65
		c-0.05,0.06-0.08,0.11-0.1,0.16s-0.04,0.1-0.06,0.16s-0.05,0.12-0.08,0.18s-0.07,0.12-0.13,0.17c-0.04,0.3-0.09,0.55-0.17,0.74
		s-0.16,0.38-0.24,0.56c-0.14,0.34-0.27,0.68-0.38,1.02s-0.18,0.73-0.2,1.16c0.06-0.02,0.11-0.04,0.17-0.04s0.1,0,0.15,0
		c0.11,0,0.23,0.02,0.37,0.05c0.35-0.19,0.74-0.3,1.15-0.33s0.83-0.06,1.24-0.07c0.16,0,0.33,0,0.49,0s0.32-0.01,0.46-0.04
		c0.11,0.06,0.17,0.09,0.2,0.1s0.07,0.01,0.13,0.01c0.08,0,0.15,0.01,0.21,0.02c0.14,0.13,0.28,0.22,0.4,0.28s0.26,0.11,0.4,0.16
		c0.13,0.05,0.25,0.1,0.38,0.15s0.24,0.13,0.36,0.22l0.12,0.76c0.08,0.11,0.12,0.18,0.11,0.21c0,0.09-0.02,0.16-0.07,0.21l0.04,0.19
		c-0.18,0.04-0.3,0.08-0.36,0.12s-0.13,0.1-0.18,0.16c-0.09,0.01-0.16,0.02-0.2,0.02s-0.08,0-0.11,0c-0.16,0-0.36,0.03-0.6,0.09
		c-0.32-0.11-0.64-0.16-0.98-0.16c-0.13,0-0.26,0.01-0.4,0.02s-0.28,0.02-0.42,0.04c-0.14,0.02-0.28,0.04-0.43,0.05
		s-0.3,0.02-0.45,0.02L446.78,277.89z"/>
	<path d="M458.63,270.15c0.04-0.18,0.06-0.32,0.07-0.43s-0.03-0.23-0.12-0.36c0.05-0.19,0.08-0.33,0.11-0.44s0.03-0.25,0.01-0.44
		c0.11-0.3,0.27-0.56,0.48-0.77s0.45-0.39,0.71-0.54s0.53-0.27,0.81-0.37s0.54-0.18,0.79-0.25c0-0.05-0.02-0.07-0.07-0.07
		s-0.06-0.03-0.04-0.09c0.63-0.12,1.27-0.29,1.91-0.51s1.29-0.42,1.96-0.6s1.35-0.28,2.06-0.33s1.44,0.05,2.21,0.27
		c0.05,0.14,0.11,0.28,0.19,0.4s0.17,0.25,0.25,0.38s0.17,0.24,0.24,0.36s0.11,0.24,0.12,0.37c0.14,0.13,0.25,0.27,0.34,0.41
		s0.1,0.34,0.04,0.59c-0.13,0.09-0.26,0.19-0.4,0.28s-0.29,0.18-0.44,0.26c-0.53-0.13-1.05-0.18-1.58-0.14s-1,0.08-1.42,0.12
		c-0.13-0.14-0.28-0.21-0.46-0.2s-0.36,0.04-0.55,0.09s-0.38,0.11-0.57,0.16s-0.36,0.07-0.53,0.04c-0.13,0.12-0.3,0.2-0.51,0.24
		s-0.43,0.07-0.67,0.1c-0.01,0.06,0,0.1,0.04,0.12s0.04,0.07,0.02,0.14c0.08,0.11,0.19,0.18,0.33,0.22s0.28,0.08,0.43,0.11
		s0.28,0.08,0.4,0.15s0.19,0.17,0.23,0.31c0.21,0.01,0.39,0.07,0.54,0.17s0.28,0.22,0.39,0.36s0.18,0.29,0.23,0.45
		s0.06,0.3,0.05,0.43c0.05,0.12,0.1,0.16,0.15,0.14s0.11,0.01,0.18,0.09c0.05,0.18,0.16,0.36,0.33,0.55s0.3,0.4,0.4,0.62
		c0.02,0.35,0.04,0.67,0.06,0.95s-0.03,0.56-0.15,0.83c-0.2,0.52-0.49,0.98-0.86,1.39s-0.8,0.77-1.27,1.08s-0.98,0.58-1.5,0.81
		s-1.05,0.42-1.56,0.57c-0.05-0.01-0.1-0.01-0.17,0s-0.08-0.02-0.04-0.11c-0.11,0.09-0.23,0.15-0.36,0.18s-0.28,0.03-0.44,0.03
		s-0.32-0.01-0.47-0.03s-0.31-0.01-0.47,0.02c-0.09-0.09-0.18-0.19-0.25-0.28s-0.14-0.21-0.18-0.33c-0.06-0.01-0.08-0.05-0.08-0.11
		s-0.02-0.1-0.08-0.1c0-0.05,0.01-0.08,0.02-0.11s0.02-0.05,0.04-0.07c0.05-0.04,0.07-0.06,0.06-0.08s-0.02-0.04-0.05-0.05
		s-0.06-0.04-0.09-0.06s-0.04-0.05-0.03-0.09c0.06-0.11,0.08-0.23,0.06-0.38s-0.03-0.3-0.04-0.45s0-0.3,0.04-0.43
		s0.13-0.25,0.3-0.34c0.48,0.05,0.93,0.02,1.36-0.07s0.83-0.22,1.21-0.39s0.74-0.34,1.09-0.54s0.68-0.37,1.01-0.54
		c0.04-0.12,0.09-0.22,0.17-0.3s0.16-0.16,0.24-0.24s0.16-0.16,0.23-0.25s0.12-0.2,0.16-0.33c0.01-0.05,0.01-0.08,0-0.11
		s-0.03-0.04-0.05-0.06s-0.05-0.04-0.07-0.06s-0.04-0.06-0.04-0.11c-0.04-0.01-0.07-0.02-0.1-0.04s-0.06-0.02-0.08-0.02
		c-0.3-0.15-0.63-0.28-0.97-0.39s-0.63-0.22-0.86-0.35c-0.14,0.09-0.28,0.12-0.42,0.07s-0.31-0.09-0.51-0.14
		c-0.49-0.02-0.96-0.07-1.4-0.14s-0.86-0.19-1.27-0.37c-0.02-0.07-0.05-0.13-0.09-0.18s-0.12-0.07-0.25-0.04
		c-0.08-0.12-0.17-0.23-0.25-0.33S458.7,270.28,458.63,270.15z"/>
	<path d="M478.77,269.63c-0.29,0-0.61,0.02-0.95,0.06s-0.67,0.08-1,0.13c-0.23,0.04-0.46,0.06-0.68,0.09s-0.41,0.04-0.59,0.05
		c-0.08,0.26-0.16,0.49-0.25,0.69s-0.17,0.39-0.26,0.58c-0.09,0.2-0.18,0.4-0.25,0.61s-0.15,0.42-0.22,0.66
		c-0.12,0.19-0.21,0.36-0.29,0.52s-0.14,0.34-0.18,0.54c-0.14,0.18-0.25,0.36-0.32,0.55s-0.12,0.36-0.16,0.5l-0.07,0.21
		c-0.07,0.07-0.11,0.13-0.12,0.17s-0.04,0.08-0.09,0.11c-0.01,0.13-0.05,0.26-0.12,0.39c-0.02,0.06-0.04,0.11-0.05,0.17
		s-0.02,0.09-0.02,0.11c0,0.12-0.03,0.19-0.09,0.23c0.01,0.06,0.01,0.12,0,0.18s-0.02,0.13-0.04,0.18
		c-0.04,0.14-0.05,0.25-0.04,0.33c0.04,0.05,0.07,0.09,0.1,0.12s0.05,0.08,0.06,0.14c0.07,0.05,0.12,0.08,0.16,0.09
		c0.05,0.04,0.12,0.08,0.21,0.12l0.16,0.18c0.06,0.34,0.01,0.61-0.16,0.81c-0.18,0.22-0.47,0.33-0.9,0.33h-0.21
		c-0.06-0.06-0.09-0.11-0.11-0.14c-0.09-0.04-0.17-0.06-0.23-0.09s-0.11-0.07-0.16-0.14c-0.15-0.07-0.28-0.13-0.37-0.18l-0.16-0.09
		c0-0.13,0-0.2,0-0.21c-0.08-0.11-0.14-0.22-0.18-0.35s-0.07-0.26-0.1-0.39c-0.02-0.11-0.05-0.21-0.08-0.3s-0.07-0.18-0.11-0.25
		c-0.02-0.68,0.04-1.25,0.19-1.72s0.31-0.92,0.47-1.35c0.09-0.23,0.19-0.47,0.28-0.71s0.18-0.49,0.25-0.75l0.16-0.18
		c0.08-0.19,0.15-0.34,0.2-0.47s0.11-0.25,0.17-0.38c0.04-0.08,0.07-0.16,0.1-0.24s0.06-0.14,0.08-0.2c-0.07,0-0.13,0-0.19,0.01
		s-0.12,0.01-0.18,0.03c-0.07,0.01-0.13,0.02-0.19,0.03s-0.12,0.01-0.18,0.01c-0.08,0-0.14-0.01-0.18-0.02
		c-0.13,0.06-0.27,0.09-0.42,0.09h-0.18c-0.04,0-0.07,0-0.1-0.01s-0.06-0.01-0.08-0.01c-0.12,0-0.21,0.02-0.28,0.05
		c-0.14,0-0.28,0-0.4,0h-0.18c-0.02,0-0.05,0-0.09,0.01s-0.06,0.01-0.09,0.01c-0.08,0-0.17-0.01-0.26-0.03s-0.19-0.06-0.3-0.11
		c-0.14-0.19-0.23-0.29-0.28-0.3l-0.16-0.21c-0.01-0.07-0.03-0.14-0.05-0.2s-0.05-0.14-0.07-0.22c-0.05-0.12-0.09-0.24-0.13-0.38
		s-0.06-0.3-0.06-0.48c0.01-0.09,0.04-0.16,0.07-0.21s0.06-0.09,0.09-0.12l0.05-0.26l0.23,0.02h0.49c0.38,0,0.76-0.01,1.14-0.04
		s0.79-0.06,1.2-0.1c0.23-0.02,0.47-0.05,0.71-0.07s0.49-0.05,0.75-0.07c0.05-0.11,0.09-0.21,0.14-0.3l0.18-0.09
		c0.21-0.01,0.36,0.01,0.45,0.08s0.16,0.13,0.22,0.18c0.26-0.02,0.52-0.05,0.78-0.08s0.53-0.07,0.8-0.11c0.4-0.06,0.8-0.11,1.2-0.16
		s0.79-0.07,1.17-0.07c0.16,0,0.32,0.01,0.47,0.02s0.29,0.03,0.42,0.05l0.18,0.12c0.04,0.07,0.08,0.13,0.15,0.19s0.13,0.12,0.2,0.18
		c0.14,0.13,0.28,0.28,0.42,0.46s0.19,0.43,0.16,0.77c-0.09,0.14-0.16,0.22-0.21,0.25l-0.16,0.21l-0.18-0.02
		c-0.07,0-0.13,0.01-0.19,0.03s-0.12,0.04-0.18,0.06c-0.05,0.02-0.09,0.04-0.14,0.06s-0.1,0.03-0.16,0.04c-0.11,0-0.19,0-0.25-0.01
		S478.84,269.63,478.77,269.63z"/>
	<path d="M485.8,276.6c-0.07,0.2-0.17,0.4-0.31,0.61s-0.29,0.39-0.47,0.54s-0.38,0.29-0.61,0.4s-0.46,0.16-0.7,0.18
		c-0.15-0.04-0.25-0.07-0.31-0.11s-0.11-0.08-0.17-0.11c-0.04-0.02-0.07-0.04-0.1-0.06s-0.06-0.03-0.08-0.04l-0.21-0.09l0.07-0.23
		c0.02-0.09,0.02-0.17-0.02-0.22s-0.11-0.13-0.21-0.22c-0.04-0.04-0.07-0.07-0.11-0.11s-0.06-0.07-0.09-0.11l-0.3-0.33l0.47-0.12
		c0.29-0.08,0.49-0.19,0.59-0.32s0.14-0.35,0.11-0.65c-0.23-0.05-0.43-0.05-0.59-0.02s-0.32,0.08-0.48,0.12
		c-0.21,0.06-0.42,0.11-0.64,0.15s-0.45,0.06-0.71,0.06c-0.09,0-0.18,0-0.26-0.01s-0.17-0.01-0.26-0.03l-0.18-0.04
		c-0.02-0.13-0.05-0.2-0.07-0.22s-0.05-0.04-0.07-0.06c-0.06-0.06-0.12-0.14-0.18-0.24s-0.08-0.23-0.04-0.38
		c-0.06-0.11-0.09-0.21-0.11-0.32c-0.07,0.14-0.12,0.29-0.16,0.44l-0.07,0.18l-0.18,0.04c-0.02,0.01-0.04,0.04-0.05,0.08
		s-0.02,0.07-0.02,0.1l-0.09,0.3c-0.02,0.02-0.05,0.04-0.07,0.06s-0.05,0.04-0.07,0.06c-0.02,0.11-0.05,0.21-0.09,0.32
		s-0.07,0.21-0.11,0.3c-0.06,0.15-0.11,0.3-0.15,0.45s-0.06,0.29-0.04,0.43l-0.07,0.19c-0.06,0.07-0.12,0.13-0.19,0.17
		s-0.14,0.08-0.21,0.11c-0.02,0.02-0.06,0.04-0.1,0.06s-0.07,0.03-0.1,0.04l-0.05,0.19l-0.21,0.04c-0.13,0.02-0.22,0.04-0.27,0.05
		s-0.11,0.02-0.18,0.02l-0.18-0.02c-0.13-0.11-0.23-0.19-0.3-0.25s-0.15-0.13-0.25-0.18c-0.11-0.14-0.16-0.25-0.18-0.32
		s-0.02-0.13-0.04-0.19c-0.02-0.07-0.04-0.13-0.04-0.18s-0.02-0.08-0.04-0.11l-0.23-0.21l0.19-0.16l0.02-0.3
		c0.23-0.6,0.48-1.17,0.75-1.72s0.54-1.11,0.82-1.69c0.09-0.19,0.18-0.38,0.27-0.56s0.18-0.38,0.27-0.56
		c-0.01-0.04-0.02-0.08-0.02-0.12s0.01-0.1,0.04-0.16c0.13-0.2,0.23-0.38,0.32-0.54s0.16-0.32,0.25-0.48
		c0.09-0.2,0.19-0.39,0.29-0.58s0.23-0.38,0.38-0.58l0.28-0.12c0.04-0.01,0.08-0.03,0.12-0.04s0.1-0.03,0.16-0.03l0.26,0.04
		c0.33-0.15,0.62-0.37,0.86-0.64s0.5-0.61,0.76-0.99l0.18-0.25l0.23,0.14c0.06,0.04,0.14,0.07,0.25,0.1s0.22,0.06,0.33,0.1
		c0.21,0.05,0.41,0.1,0.6,0.16s0.34,0.15,0.46,0.26c0.07,0.19,0.11,0.33,0.12,0.42s0.03,0.19,0.05,0.28c0.04,0.2,0.07,0.4,0.1,0.6
		s0.05,0.42,0.06,0.67c0.06,0.2,0.11,0.4,0.15,0.59s0.08,0.39,0.11,0.59c0.06,0.28,0.12,0.55,0.18,0.82s0.13,0.51,0.23,0.75
		c0.09,0,0.15,0.01,0.18,0.02c0.06-0.02,0.12-0.04,0.18-0.05s0.14-0.02,0.22-0.04l0.19-0.02l0.07,0.18
		c0.01,0.06,0.07,0.12,0.18,0.18c0.15,0.01,0.26,0.04,0.33,0.1s0.13,0.11,0.19,0.17c0.05,0.05,0.09,0.08,0.14,0.11l0.26,0.11
		l-0.14,0.26c-0.12,0.21-0.28,0.41-0.5,0.61s-0.46,0.35-0.73,0.48c0.01,0.07,0.02,0.14,0.03,0.2s0.02,0.13,0.04,0.2
		c0.04,0.2,0.06,0.4,0.09,0.62s0.02,0.43,0,0.65L485.8,276.6z M480.72,273.56c0.35-0.02,0.67-0.05,0.96-0.08s0.61-0.08,0.96-0.15
		c-0.08-0.35-0.17-0.72-0.26-1.1s-0.19-0.76-0.3-1.13l-0.11,0.18c-0.23,0.25-0.46,0.52-0.68,0.83s-0.4,0.59-0.55,0.86
		c-0.07,0.11-0.14,0.21-0.21,0.32s-0.13,0.21-0.19,0.32c0.07-0.01,0.14-0.02,0.2-0.02S480.67,273.58,480.72,273.56z"/>
	<path d="M494.28,278.12c-0.19,0.01-0.42,0.01-0.69-0.02s-0.53,0.02-0.76,0.12c-0.62-0.02-1.25-0.1-1.9-0.23s-1.24-0.29-1.78-0.47
		c-0.12-0.13-0.23-0.25-0.35-0.36s-0.28-0.19-0.47-0.24c-0.28-0.22-0.51-0.5-0.69-0.82s-0.32-0.67-0.42-1.03s-0.18-0.74-0.21-1.12
		s-0.05-0.75-0.04-1.1c0.18-0.53,0.42-0.98,0.75-1.36s0.65-0.76,0.99-1.13c0.15-0.07,0.27-0.14,0.34-0.22s0.16-0.15,0.25-0.21
		s0.18-0.13,0.26-0.19s0.17-0.14,0.24-0.24c0.25-0.06,0.46-0.14,0.64-0.25s0.36-0.23,0.54-0.35s0.36-0.24,0.54-0.34
		s0.4-0.19,0.65-0.25c0.09-0.11,0.21-0.19,0.33-0.25s0.26-0.13,0.4-0.19s0.26-0.13,0.39-0.2s0.22-0.16,0.29-0.28
		c0.06,0.09,0.14,0.13,0.25,0.1s0.21-0.06,0.3-0.1c0.06-0.01,0.11,0,0.15,0.04s0.08,0.07,0.11,0.11s0.07,0.06,0.1,0.06
		s0.06-0.02,0.08-0.08c0.06,0,0.08,0.03,0.05,0.09s-0.04,0.1-0.05,0.12c0.09-0.01,0.17,0.01,0.24,0.06s0.17,0.08,0.31,0.1
		c0.05,0.06,0.06,0.1,0.04,0.13s-0.04,0.08-0.04,0.15c0.35,0.11,0.57,0.27,0.67,0.5s0.1,0.47,0.02,0.71s-0.23,0.47-0.44,0.69
		s-0.44,0.35-0.69,0.42c-0.56,0.15-1.09,0.32-1.59,0.5s-0.91,0.45-1.22,0.8c-0.28,0.08-0.53,0.19-0.75,0.33s-0.42,0.29-0.62,0.46
		s-0.38,0.35-0.54,0.53s-0.35,0.36-0.54,0.54c0.01,0.16-0.01,0.29-0.08,0.38s-0.13,0.18-0.18,0.27c0.02,0.18,0.06,0.33,0.12,0.47
		s0.12,0.27,0.19,0.4c0.77,0.23,1.6,0.38,2.47,0.44s1.75,0.09,2.63,0.11c0.08,0.12,0.18,0.23,0.29,0.33s0.21,0.21,0.31,0.32
		s0.17,0.23,0.23,0.37s0.07,0.3,0.04,0.5c-0.16,0.18-0.35,0.34-0.54,0.48S494.48,277.96,494.28,278.12z"/>
	<path d="M506.81,277.45c-0.56,0.02-1.06,0.01-1.49-0.04s-0.85-0.16-1.26-0.33c-0.02-0.01-0.05-0.04-0.07-0.09s-0.05-0.08-0.07-0.11
		c-0.07-0.04-0.16-0.05-0.25-0.04s-0.18,0-0.25-0.03c-0.09-0.05-0.24-0.14-0.44-0.27s-0.38-0.26-0.54-0.38
		c-0.21-0.16-0.41-0.33-0.6-0.49s-0.35-0.34-0.49-0.53c-0.04-0.05-0.08-0.07-0.14-0.08s-0.11-0.02-0.16-0.04
		c-0.34,0.21-0.63,0.47-0.86,0.79s-0.46,0.64-0.67,0.97s-0.43,0.64-0.67,0.93s-0.53,0.52-0.9,0.67c-0.11,0-0.2-0.02-0.28-0.05
		s-0.16-0.08-0.23-0.13s-0.14-0.1-0.21-0.15s-0.15-0.08-0.23-0.11c0-0.14-0.03-0.27-0.08-0.39s-0.11-0.23-0.16-0.33
		s-0.09-0.21-0.11-0.31s0-0.2,0.07-0.29c-0.07-0.07-0.18-0.15-0.32-0.23c0.07-0.07,0.1-0.13,0.1-0.19s-0.02-0.12-0.04-0.18
		s-0.04-0.12-0.06-0.19s0-0.14,0.04-0.21c0.06,0,0.13-0.01,0.21-0.04c-0.07-0.09-0.1-0.15-0.1-0.17s-0.01-0.04-0.04-0.08
		c-0.02-0.07-0.01-0.11,0.04-0.13s0.09-0.04,0.14-0.06c0.05-0.57,0.15-1.11,0.3-1.6s0.32-0.97,0.51-1.42s0.37-0.92,0.55-1.39
		s0.33-0.97,0.45-1.51c0.13-0.13,0.23-0.28,0.31-0.46s0.16-0.35,0.25-0.53s0.19-0.35,0.3-0.52s0.27-0.31,0.47-0.41
		c0.16,0.01,0.31,0.06,0.44,0.13s0.29,0.11,0.47,0.1c0.04,0.06,0.07,0.12,0.1,0.18s0.07,0.12,0.11,0.18l0.26-0.05
		c0.13,0.11,0.24,0.24,0.34,0.4s0.17,0.33,0.2,0.5s0.03,0.34-0.02,0.5s-0.16,0.28-0.33,0.38c0.01,0.06,0.01,0.1,0.01,0.13
		s-0.01,0.06-0.03,0.08s-0.02,0.05-0.02,0.07s0.02,0.06,0.05,0.11c-0.23,0.18-0.41,0.42-0.53,0.74s-0.18,0.6-0.19,0.84
		c0.14-0.14,0.3-0.28,0.47-0.41s0.35-0.27,0.53-0.4s0.36-0.25,0.53-0.37s0.33-0.23,0.47-0.35c0.39-0.35,0.76-0.64,1.12-0.85
		s0.74-0.46,1.13-0.73c0.09-0.02,0.17-0.03,0.22-0.01s0.11,0.04,0.17,0.06c0-0.07-0.02-0.11-0.06-0.12s-0.06-0.06-0.04-0.14
		c0.18-0.05,0.33-0.1,0.46-0.17s0.27-0.13,0.42-0.18c0.11,0.11,0.21,0.21,0.3,0.33s0.22,0.18,0.39,0.2
		c0.06,0.13,0.13,0.23,0.21,0.29s0.16,0.13,0.25,0.18s0.16,0.13,0.22,0.21s0.1,0.21,0.11,0.39c-0.05,0.08-0.1,0.17-0.15,0.26
		s-0.1,0.21-0.15,0.33c-0.23,0.21-0.47,0.4-0.71,0.56s-0.48,0.32-0.73,0.47s-0.5,0.3-0.76,0.46s-0.52,0.33-0.79,0.54
		c-0.06,0.08-0.13,0.16-0.22,0.22s-0.18,0.13-0.27,0.19s-0.18,0.13-0.26,0.2s-0.15,0.15-0.19,0.25c-0.04,0.01-0.07,0.02-0.11,0.02
		s-0.07,0.01-0.11,0.02c-0.04,0.08-0.09,0.15-0.17,0.19s-0.13,0.11-0.15,0.19c0.18,0.38,0.4,0.66,0.69,0.86s0.6,0.34,0.95,0.43
		s0.73,0.13,1.14,0.14s0.84,0.01,1.28,0.01c0.05-0.01,0.07-0.04,0.06-0.08s0.02-0.06,0.08-0.04c0.28,0.09,0.5,0.23,0.65,0.4
		s0.33,0.34,0.54,0.5c-0.02,0.45-0.16,0.81-0.4,1.11S507.22,277.27,506.81,277.45z"/>
	<path d="M515.86,276.83c-0.06-0.13-0.12-0.25-0.18-0.37s-0.12-0.22-0.18-0.32c-0.14-0.28-0.26-0.53-0.37-0.76s-0.21-0.48-0.3-0.77
		c0.04-0.2,0.1-0.53,0.18-1s0.19-0.98,0.31-1.54s0.24-1.12,0.38-1.7s0.27-1.07,0.41-1.48c0.13-0.36,0.27-0.75,0.43-1.16
		s0.33-0.79,0.53-1.13s0.4-0.64,0.62-0.89s0.46-0.39,0.72-0.44c0.07,0.09,0.15,0.17,0.23,0.22s0.16,0.09,0.23,0.11
		c0.2,0.28,0.39,0.52,0.58,0.71s0.41,0.38,0.67,0.57c-0.07,0.35-0.17,0.74-0.31,1.17s-0.28,0.86-0.42,1.29s-0.29,0.85-0.43,1.26
		s-0.25,0.75-0.33,1.05c-0.07,0.23-0.14,0.5-0.21,0.81c-0.06,0.26-0.12,0.57-0.18,0.93s-0.13,0.76-0.18,1.2
		c0.16-0.05,0.35-0.14,0.55-0.28s0.4-0.29,0.57-0.44c0.21-0.18,0.42-0.36,0.62-0.56c0.27-0.27,0.5-0.52,0.69-0.74
		s0.36-0.45,0.52-0.69s0.32-0.5,0.49-0.79s0.37-0.63,0.61-1.03c0.21-0.34,0.43-0.7,0.66-1.09s0.46-0.76,0.69-1.11
		s0.46-0.68,0.69-0.98s0.43-0.53,0.62-0.69c0.13,0.13,0.28,0.26,0.45,0.4s0.35,0.24,0.55,0.3c0.08,0.13,0.16,0.24,0.24,0.34
		s0.15,0.2,0.22,0.29c0.09,0.13,0.18,0.25,0.25,0.35s0.14,0.22,0.2,0.35c-0.01,0.09-0.03,0.22-0.06,0.37s-0.06,0.32-0.1,0.5
		s-0.07,0.37-0.11,0.55s-0.08,0.37-0.11,0.54c-0.12,0.53-0.21,0.93-0.26,1.2s-0.1,0.48-0.12,0.63s-0.04,0.28-0.04,0.39
		s-0.01,0.25-0.01,0.44c0,0.14,0.01,0.28,0.04,0.42c0.02,0.13,0.05,0.26,0.08,0.4s0.08,0.26,0.17,0.38l0.84-0.65
		c0.23-0.18,0.46-0.42,0.68-0.75s0.43-0.69,0.63-1.11s0.41-0.87,0.61-1.35s0.4-0.99,0.6-1.5c0.14-0.38,0.28-0.75,0.43-1.12
		s0.3-0.72,0.45-1.05s0.3-0.64,0.45-0.91s0.29-0.51,0.43-0.69c0.32,0.2,0.59,0.4,0.82,0.6s0.43,0.42,0.6,0.66s0.3,0.52,0.4,0.83
		s0.17,0.68,0.22,1.1c-0.26,0.49-0.5,1-0.72,1.51s-0.45,1.04-0.67,1.56c-0.28,0.68-0.57,1.36-0.87,2.03s-0.63,1.32-0.99,1.92
		s-0.77,1.17-1.22,1.68s-0.97,0.94-1.56,1.29c-0.16-0.04-0.3-0.05-0.42-0.05c-0.13,0-0.24,0.02-0.33,0.05s-0.17,0.08-0.24,0.14
		c-0.48-0.22-0.87-0.55-1.16-0.99s-0.58-0.93-0.86-1.47c-0.04-0.08-0.07-0.16-0.11-0.24s-0.08-0.16-0.13-0.24l-0.3-0.54l-0.18-0.33
		l-0.25,0.23l-0.37,0.33l-0.21,0.21c-0.36,0.34-0.73,0.67-1.11,0.99s-0.77,0.62-1.18,0.88s-0.85,0.48-1.31,0.64
		s-0.96,0.25-1.49,0.26c-0.09-0.05-0.18-0.09-0.25-0.12s-0.15-0.07-0.22-0.11c-0.27-0.13-0.49-0.25-0.67-0.37
		S516.1,277.08,515.86,276.83z"/>
	<path d="M542.19,268.19c0.01,0.08,0.01,0.14,0.01,0.18s-0.01,0.08-0.02,0.11s-0.01,0.07-0.01,0.11s0.01,0.1,0.04,0.18
		c-0.25,0.4-0.53,0.67-0.85,0.82s-0.67,0.25-1.05,0.32s-0.76,0.13-1.15,0.2s-0.78,0.22-1.17,0.46c-0.15-0.06-0.29-0.06-0.41,0
		s-0.3,0.08-0.54,0.05c-0.07,0.07-0.16,0.12-0.26,0.15s-0.21,0.06-0.32,0.1c0.05,0.11,0.07,0.21,0.06,0.33s0.01,0.2,0.04,0.27
		c0.41,0.04,0.86,0.03,1.36-0.02s0.99-0.08,1.47-0.09c0.01,0.06,0.01,0.1-0.02,0.11s-0.03,0.05-0.02,0.1
		c0.08,0.06,0.16,0.13,0.25,0.22s0.16,0.17,0.25,0.25s0.17,0.15,0.25,0.2s0.19,0.07,0.31,0.06c0.05,0.09,0.08,0.2,0.1,0.31
		s0,0.23-0.04,0.34c-0.19,0.13-0.38,0.26-0.56,0.4s-0.38,0.25-0.59,0.36s-0.42,0.19-0.65,0.25s-0.48,0.09-0.76,0.08
		c-0.06,0-0.1,0-0.13,0s-0.07-0.02-0.11-0.05c-0.09,0.06-0.23,0.08-0.4,0.05s-0.3-0.01-0.4,0.05c-0.13-0.06-0.28-0.08-0.47-0.08
		s-0.34-0.01-0.48-0.06c-0.19,0.25-0.36,0.51-0.51,0.79s-0.29,0.58-0.4,0.9c0.4,0.06,0.73,0.08,0.99,0.07s0.51-0.03,0.75-0.06
		s0.47-0.06,0.72-0.09s0.56-0.04,0.93-0.03c0.23-0.13,0.51-0.21,0.83-0.25s0.62-0.11,0.89-0.2c0.09,0.04,0.18,0.1,0.25,0.18
		s0.14,0.17,0.2,0.25s0.13,0.14,0.2,0.2s0.16,0.08,0.26,0.07c0.05,0.05,0.08,0.1,0.1,0.17s0.03,0.13,0.04,0.18s0.03,0.11,0.06,0.15
		s0.08,0.06,0.15,0.04c-0.18,0.39-0.38,0.68-0.61,0.89s-0.49,0.36-0.78,0.47s-0.62,0.19-0.98,0.25s-0.75,0.13-1.19,0.21
		c-0.11,0.02-0.19,0.02-0.26-0.01s-0.15-0.04-0.25-0.04c-0.27,0.06-0.59,0.11-0.97,0.16s-0.76,0.06-1.14,0.05s-0.76-0.06-1.11-0.15
		s-0.64-0.24-0.86-0.47c-0.09-0.08-0.16-0.18-0.18-0.29s-0.11-0.2-0.24-0.25c-0.01-0.15-0.04-0.32-0.07-0.51s-0.07-0.38-0.11-0.59
		s-0.06-0.41-0.08-0.61s-0.01-0.38,0.03-0.54c0.04-0.18,0.11-0.33,0.22-0.47s0.15-0.29,0.11-0.46c0.06-0.01,0.09-0.04,0.11-0.1
		s0.06-0.07,0.14-0.06c0.07-0.21,0.15-0.41,0.23-0.6s0.17-0.37,0.25-0.54s0.18-0.35,0.26-0.54s0.17-0.38,0.25-0.61
		c-0.16-0.15-0.28-0.32-0.36-0.5s-0.13-0.36-0.17-0.54s-0.06-0.37-0.09-0.56s-0.06-0.39-0.12-0.59c0.12-0.18,0.26-0.32,0.43-0.43
		s0.35-0.2,0.55-0.27s0.42-0.13,0.65-0.18s0.48-0.1,0.74-0.16c0.47-0.15,0.89-0.27,1.26-0.35s0.73-0.15,1.09-0.2s0.73-0.1,1.12-0.15
		s0.83-0.12,1.32-0.21c0.11,0.11,0.21,0.16,0.3,0.16c0.05-0.11,0.1-0.14,0.17-0.1s0.09,0.01,0.08-0.1c0.12,0.2,0.27,0.37,0.45,0.5
		S541.97,268.09,542.19,268.19z"/>
	<path d="M551.42,275.22c0.07,0.04,0.11,0.09,0.12,0.18s0.01,0.15,0,0.19c-0.21,0.27-0.36,0.46-0.44,0.56s-0.14,0.18-0.18,0.24
		s-0.07,0.1-0.11,0.13s-0.13,0.11-0.27,0.23c-0.53,0.32-1.07,0.6-1.63,0.84s-1.14,0.42-1.75,0.51c-0.09,0.13-0.27,0.22-0.54,0.27
		s-0.51,0.1-0.73,0.15c-0.05-0.02-0.07-0.06-0.08-0.1s-0.03-0.07-0.08-0.1c-0.01,0.12-0.06,0.18-0.16,0.18s-0.21-0.02-0.34-0.07
		s-0.28-0.12-0.42-0.21s-0.27-0.17-0.38-0.24c-0.06,0.09-0.12,0.19-0.18,0.28s-0.14,0.16-0.24,0.19c-0.13-0.02-0.23-0.04-0.29-0.05
		s-0.13,0.01-0.18,0.07c-0.07-0.04-0.13-0.08-0.17-0.12s-0.08-0.09-0.12-0.13s-0.09-0.08-0.14-0.11s-0.13-0.06-0.22-0.09
		c0.02-0.05,0.01-0.12-0.04-0.22s-0.12-0.16-0.21-0.18c0.05-0.08,0.03-0.18-0.06-0.31s-0.16-0.26-0.2-0.41
		c0.02-0.13,0.04-0.27,0.05-0.42s0.08-0.24,0.21-0.26c-0.01-0.08-0.03-0.15-0.05-0.21s-0.05-0.12-0.07-0.18
		c0.08-0.07,0.14-0.16,0.18-0.25s0.06-0.2,0.09-0.31s0.05-0.21,0.09-0.32s0.1-0.19,0.19-0.26c0.11-0.35,0.19-0.61,0.25-0.78
		s0.1-0.34,0.13-0.5s0.06-0.34,0.11-0.53s0.11-0.42,0.22-0.7c-0.01-0.18,0.01-0.33,0.05-0.47s0.1-0.27,0.15-0.4s0.1-0.28,0.13-0.42
		s0.03-0.32-0.02-0.52c-0.16,0.01-0.28,0.07-0.35,0.17s-0.12,0.23-0.14,0.4c-0.09,0.09-0.21,0.14-0.34,0.13s-0.25,0.01-0.36,0.04
		c-0.41-0.16-0.75-0.4-1.02-0.7s-0.49-0.66-0.65-1.07c0.11-0.27,0.26-0.5,0.47-0.68s0.45-0.33,0.72-0.46s0.56-0.22,0.86-0.3
		s0.6-0.15,0.88-0.22c0.46-0.08,0.91-0.18,1.37-0.28s0.95-0.14,1.48-0.11c0.07-0.04,0.16-0.06,0.25-0.06s0.2-0.01,0.31-0.01
		s0.21,0,0.31-0.01s0.18-0.03,0.25-0.06c0.06,0.07,0.14,0.11,0.25,0.13s0.23,0.07,0.36,0.17c0.14-0.11,0.26-0.13,0.36-0.07
		s0.19,0.12,0.27,0.19s0.16,0.13,0.24,0.19s0.16,0.09,0.24,0.09c0.08,0.11,0.18,0.21,0.31,0.3s0.24,0.19,0.35,0.29
		s0.21,0.21,0.28,0.33s0.11,0.25,0.11,0.4c-0.01,0.06,0.01,0.09,0.05,0.11s0.08,0.04,0.11,0.07c0.01,0.36-0.04,0.68-0.17,0.94
		s-0.28,0.51-0.46,0.73s-0.38,0.43-0.6,0.63s-0.41,0.41-0.59,0.63c0.12,0.15,0.25,0.29,0.4,0.4s0.31,0.23,0.47,0.35
		s0.31,0.24,0.45,0.37s0.26,0.28,0.35,0.46c0.02,0.02,0.05,0.04,0.09,0.06s0.07,0.04,0.11,0.06c0.04,0.12,0.08,0.24,0.14,0.36
		s0.11,0.24,0.15,0.35s0.07,0.21,0.08,0.3S551.48,275.16,551.42,275.22z M548.33,269.35c-0.6-0.02-1.19,0.03-1.78,0.16
		s-1.09,0.31-1.49,0.54c0.2,0.16,0.4,0.31,0.61,0.44s0.37,0.3,0.48,0.53c0.46-0.19,0.86-0.42,1.21-0.71S548.04,269.7,548.33,269.35z
		 M548.56,274.95c0.04-0.12,0.1-0.21,0.19-0.28s0.19-0.14,0.28-0.2s0.18-0.13,0.25-0.21s0.1-0.18,0.09-0.33
		c-0.38-0.2-0.72-0.32-1.03-0.36s-0.6-0.04-0.88,0s-0.54,0.1-0.79,0.18s-0.51,0.14-0.76,0.18c-0.13,0.34-0.26,0.71-0.4,1.11
		s-0.28,0.79-0.4,1.16c0.35-0.05,0.67-0.12,0.97-0.22s0.58-0.21,0.85-0.33s0.54-0.24,0.81-0.36S548.27,275.06,548.56,274.95z"/>
	<path d="M560.48,278.27c-0.34-0.08-0.6-0.22-0.78-0.41s-0.32-0.42-0.4-0.69s-0.15-0.55-0.18-0.87s-0.06-0.64-0.1-0.98
		c0.05-0.15,0.11-0.28,0.18-0.39s0.11-0.25,0.1-0.44c0.13-0.38,0.25-0.74,0.35-1.09s0.18-0.71,0.21-1.09
		c0.07-0.11,0.14-0.18,0.21-0.21c0.09-0.67,0.11-1.35,0.04-2.06s-0.19-1.35-0.35-1.95c0.01-0.13,0.03-0.23,0.05-0.29
		s0.02-0.12,0-0.17c-0.02-0.11,0.01-0.16,0.11-0.16s0.19,0,0.28,0c0-0.21-0.04-0.42-0.11-0.62s-0.15-0.44-0.22-0.71
		c0.09-0.21,0.16-0.42,0.19-0.62s0.1-0.38,0.19-0.54c0.38,0.12,0.74,0.25,1.11,0.4s0.72,0.3,1.07,0.45s0.7,0.29,1.04,0.42
		s0.67,0.24,1,0.33c0.5,0.36,1.02,0.72,1.56,1.08s1.02,0.75,1.46,1.18s0.81,0.92,1.1,1.47s0.46,1.2,0.51,1.95
		c-0.02,0.07-0.04,0.13-0.05,0.18s-0.02,0.09-0.04,0.14s-0.02,0.1-0.02,0.16s0,0.14,0,0.25c-0.42,0.74-0.96,1.36-1.6,1.86
		s-1.35,0.95-2.11,1.34s-1.56,0.74-2.38,1.06S561.26,277.91,560.48,278.27z M562.2,268.31c-0.11,0-0.18,0.02-0.23,0.07
		c0.14,0.53,0.25,1.03,0.32,1.49s0.11,0.94,0.11,1.41s-0.02,0.95-0.08,1.44s-0.14,1.03-0.25,1.6c0.15-0.01,0.29-0.04,0.4-0.09
		s0.24-0.1,0.36-0.16s0.25-0.11,0.39-0.16s0.29-0.08,0.47-0.09c0.05-0.09,0.11-0.17,0.18-0.22s0.14-0.11,0.2-0.17
		c0.29-0.12,0.59-0.24,0.88-0.37s0.56-0.28,0.81-0.44s0.47-0.35,0.67-0.56s0.36-0.46,0.49-0.76c-0.09-0.18-0.21-0.33-0.34-0.45
		s-0.28-0.25-0.42-0.37s-0.29-0.25-0.42-0.39s-0.24-0.29-0.33-0.47c-0.19-0.02-0.35-0.07-0.49-0.15s-0.28-0.15-0.4-0.23
		s-0.27-0.15-0.41-0.22s-0.32-0.11-0.52-0.12c-0.3-0.16-0.58-0.28-0.83-0.34S562.33,268.43,562.2,268.31z"/>
	<path d="M578.99,268.19c0.01,0.08,0.01,0.14,0.01,0.18s-0.01,0.08-0.02,0.11s-0.01,0.07-0.01,0.11s0.01,0.1,0.04,0.18
		c-0.25,0.4-0.53,0.67-0.85,0.82s-0.67,0.25-1.05,0.32s-0.76,0.13-1.15,0.2s-0.78,0.22-1.17,0.46c-0.15-0.06-0.29-0.06-0.41,0
		s-0.3,0.08-0.54,0.05c-0.07,0.07-0.16,0.12-0.26,0.15s-0.21,0.06-0.32,0.1c0.05,0.11,0.07,0.21,0.06,0.33s0.01,0.2,0.04,0.27
		c0.41,0.04,0.86,0.03,1.36-0.02s0.99-0.08,1.47-0.09c0.01,0.06,0.01,0.1-0.02,0.11s-0.03,0.05-0.02,0.1
		c0.08,0.06,0.16,0.13,0.25,0.22s0.16,0.17,0.25,0.25s0.17,0.15,0.25,0.2s0.19,0.07,0.31,0.06c0.05,0.09,0.08,0.2,0.1,0.31
		s0,0.23-0.04,0.34c-0.19,0.13-0.38,0.26-0.56,0.4s-0.38,0.25-0.59,0.36s-0.42,0.19-0.65,0.25s-0.48,0.09-0.76,0.08
		c-0.06,0-0.1,0-0.13,0s-0.07-0.02-0.11-0.05c-0.09,0.06-0.23,0.08-0.4,0.05s-0.3-0.01-0.4,0.05c-0.13-0.06-0.28-0.08-0.47-0.08
		s-0.34-0.01-0.48-0.06c-0.19,0.25-0.36,0.51-0.51,0.79s-0.29,0.58-0.4,0.9c0.4,0.06,0.73,0.08,0.99,0.07s0.51-0.03,0.75-0.06
		s0.47-0.06,0.72-0.09s0.56-0.04,0.93-0.03c0.23-0.13,0.51-0.21,0.83-0.25s0.62-0.11,0.89-0.2c0.09,0.04,0.18,0.1,0.25,0.18
		s0.14,0.17,0.2,0.25s0.13,0.14,0.2,0.2s0.16,0.08,0.26,0.07c0.05,0.05,0.08,0.1,0.1,0.17s0.03,0.13,0.04,0.18s0.03,0.11,0.06,0.15
		s0.08,0.06,0.15,0.04c-0.18,0.39-0.38,0.68-0.61,0.89s-0.49,0.36-0.78,0.47s-0.62,0.19-0.98,0.25s-0.75,0.13-1.19,0.21
		c-0.11,0.02-0.19,0.02-0.26-0.01s-0.15-0.04-0.25-0.04c-0.27,0.06-0.59,0.11-0.97,0.16s-0.76,0.06-1.14,0.05s-0.76-0.06-1.11-0.15
		s-0.64-0.24-0.86-0.47c-0.09-0.08-0.16-0.18-0.18-0.29s-0.11-0.2-0.24-0.25c-0.01-0.15-0.04-0.32-0.07-0.51s-0.07-0.38-0.11-0.59
		s-0.06-0.41-0.08-0.61s-0.01-0.38,0.03-0.54c0.04-0.18,0.11-0.33,0.22-0.47s0.15-0.29,0.11-0.46c0.06-0.01,0.09-0.04,0.11-0.1
		s0.06-0.07,0.14-0.06c0.07-0.21,0.15-0.41,0.23-0.6s0.17-0.37,0.25-0.54s0.18-0.35,0.26-0.54s0.17-0.38,0.25-0.61
		c-0.16-0.15-0.28-0.32-0.36-0.5s-0.13-0.36-0.17-0.54s-0.06-0.37-0.09-0.56s-0.06-0.39-0.12-0.59c0.12-0.18,0.26-0.32,0.43-0.43
		s0.35-0.2,0.55-0.27s0.42-0.13,0.65-0.18s0.48-0.1,0.74-0.16c0.47-0.15,0.89-0.27,1.26-0.35s0.73-0.15,1.09-0.2s0.73-0.1,1.12-0.15
		s0.83-0.12,1.32-0.21c0.11,0.11,0.21,0.16,0.3,0.16c0.05-0.11,0.1-0.14,0.17-0.1s0.09,0.01,0.08-0.1c0.12,0.2,0.27,0.37,0.45,0.5
		S578.76,268.09,578.99,268.19z"/>
	<path d="M584.42,274.99c-0.01,0.16-0.05,0.32-0.11,0.47s-0.14,0.29-0.24,0.42s-0.2,0.26-0.31,0.39s-0.22,0.23-0.33,0.33
		c0.04,0.15,0.04,0.27,0.01,0.34s-0.04,0.19-0.03,0.34c-0.18,0.47-0.44,0.78-0.8,0.94s-0.69,0.13-1.01-0.1
		c-0.13-0.09-0.24-0.21-0.33-0.36s-0.21-0.24-0.36-0.27c0.04-0.2,0.02-0.4-0.05-0.6s-0.15-0.3-0.23-0.32
		c-0.04-0.25-0.09-0.51-0.16-0.79s-0.13-0.57-0.19-0.85s-0.11-0.57-0.15-0.84s-0.06-0.53-0.04-0.76c0.01-0.12-0.01-0.22-0.06-0.32
		s-0.09-0.21-0.11-0.33c-0.05-0.27-0.06-0.55-0.04-0.85s0.03-0.58,0.03-0.85c0-0.26-0.01-0.54-0.04-0.83s-0.06-0.59-0.08-0.86
		s-0.04-0.53-0.04-0.76s0.03-0.41,0.09-0.54c0.07-0.14,0.17-0.25,0.29-0.34s0.24-0.18,0.34-0.29c0.26,0.02,0.46,0.13,0.62,0.32
		s0.21,0.36,0.18,0.53c0.25,0.15,0.44,0.35,0.59,0.59s0.26,0.51,0.35,0.81s0.15,0.62,0.18,0.95s0.06,0.66,0.09,0.98
		s0.05,0.63,0.07,0.92s0.07,0.54,0.14,0.76c0.43-0.62,0.8-1.17,1.09-1.66s0.59-0.95,0.9-1.4s0.64-0.9,1.02-1.35s0.86-0.97,1.46-1.55
		c0.12,0.01,0.21,0.04,0.29,0.07s0.14,0.06,0.2,0.09s0.13,0.04,0.21,0.06s0.19,0.01,0.33-0.01c0.05,0.12,0.08,0.2,0.11,0.25
		s0.04,0.11,0.06,0.16s0.04,0.12,0.07,0.2s0.08,0.2,0.15,0.35c0.04,0.04,0.05,0.08,0.04,0.14s-0.02,0.11-0.03,0.17
		s-0.01,0.09-0.01,0.11s0.03,0.02,0.09,0c-0.04,0.16-0.1,0.31-0.18,0.45s-0.13,0.3-0.11,0.48c-0.27,0.35-0.57,0.71-0.89,1.09
		s-0.64,0.76-0.97,1.16s-0.63,0.82-0.92,1.26s-0.54,0.9-0.76,1.38c-0.06,0-0.1,0.02-0.13,0.05s-0.06,0.07-0.08,0.11
		s-0.05,0.08-0.08,0.11S584.46,274.99,584.42,274.99z"/>
	<path d="M597.11,268.19c0.01,0.08,0.01,0.14,0.01,0.18s-0.01,0.08-0.02,0.11s-0.01,0.07-0.01,0.11s0.01,0.1,0.04,0.18
		c-0.25,0.4-0.53,0.67-0.85,0.82s-0.67,0.25-1.05,0.32s-0.76,0.13-1.15,0.2s-0.78,0.22-1.17,0.46c-0.15-0.06-0.29-0.06-0.41,0
		s-0.3,0.08-0.54,0.05c-0.07,0.07-0.16,0.12-0.26,0.15s-0.21,0.06-0.32,0.1c0.05,0.11,0.07,0.21,0.06,0.33s0.01,0.2,0.04,0.27
		c0.41,0.04,0.86,0.03,1.36-0.02s0.99-0.08,1.47-0.09c0.01,0.06,0.01,0.1-0.02,0.11s-0.03,0.05-0.02,0.1
		c0.08,0.06,0.16,0.13,0.25,0.22s0.16,0.17,0.25,0.25s0.17,0.15,0.25,0.2s0.19,0.07,0.31,0.06c0.05,0.09,0.08,0.2,0.1,0.31
		s0,0.23-0.04,0.34c-0.19,0.13-0.38,0.26-0.56,0.4s-0.38,0.25-0.59,0.36s-0.42,0.19-0.65,0.25s-0.48,0.09-0.76,0.08
		c-0.06,0-0.1,0-0.13,0s-0.07-0.02-0.11-0.05c-0.09,0.06-0.23,0.08-0.4,0.05s-0.3-0.01-0.4,0.05c-0.13-0.06-0.28-0.08-0.47-0.08
		s-0.34-0.01-0.48-0.06c-0.19,0.25-0.36,0.51-0.51,0.79s-0.29,0.58-0.4,0.9c0.4,0.06,0.73,0.08,0.99,0.07s0.51-0.03,0.75-0.06
		s0.47-0.06,0.72-0.09s0.56-0.04,0.93-0.03c0.23-0.13,0.51-0.21,0.83-0.25s0.62-0.11,0.89-0.2c0.09,0.04,0.18,0.1,0.25,0.18
		s0.14,0.17,0.2,0.25s0.13,0.14,0.2,0.2s0.16,0.08,0.26,0.07c0.05,0.05,0.08,0.1,0.1,0.17s0.03,0.13,0.04,0.18s0.03,0.11,0.06,0.15
		s0.08,0.06,0.15,0.04c-0.18,0.39-0.38,0.68-0.61,0.89s-0.49,0.36-0.78,0.47s-0.62,0.19-0.98,0.25s-0.75,0.13-1.19,0.21
		c-0.11,0.02-0.19,0.02-0.26-0.01s-0.15-0.04-0.25-0.04c-0.27,0.06-0.59,0.11-0.97,0.16s-0.76,0.06-1.14,0.05s-0.76-0.06-1.11-0.15
		s-0.64-0.24-0.86-0.47c-0.09-0.08-0.16-0.18-0.18-0.29s-0.11-0.2-0.24-0.25c-0.01-0.15-0.04-0.32-0.07-0.51s-0.07-0.38-0.11-0.59
		s-0.06-0.41-0.08-0.61s-0.01-0.38,0.03-0.54c0.04-0.18,0.11-0.33,0.22-0.47s0.15-0.29,0.11-0.46c0.06-0.01,0.09-0.04,0.11-0.1
		s0.06-0.07,0.14-0.06c0.07-0.21,0.15-0.41,0.23-0.6s0.17-0.37,0.25-0.54s0.18-0.35,0.26-0.54s0.17-0.38,0.25-0.61
		c-0.16-0.15-0.28-0.32-0.36-0.5s-0.13-0.36-0.17-0.54s-0.06-0.37-0.09-0.56s-0.06-0.39-0.12-0.59c0.12-0.18,0.26-0.32,0.43-0.43
		s0.35-0.2,0.55-0.27s0.42-0.13,0.65-0.18s0.48-0.1,0.74-0.16c0.47-0.15,0.89-0.27,1.26-0.35s0.73-0.15,1.09-0.2s0.73-0.1,1.12-0.15
		s0.83-0.12,1.32-0.21c0.11,0.11,0.21,0.16,0.3,0.16c0.05-0.11,0.1-0.14,0.17-0.1s0.09,0.01,0.08-0.1c0.12,0.2,0.27,0.37,0.45,0.5
		S596.89,268.09,597.11,268.19z"/>
	<path d="M601.33,277.89c-0.33,0.11-0.69,0.21-1.07,0.32s-0.77,0.16-1.16,0.16c-0.59,0-1.05-0.15-1.39-0.44
		c-0.06-0.13-0.11-0.22-0.16-0.26c-0.04-0.05-0.07-0.1-0.1-0.15s-0.05-0.13-0.06-0.22c-0.14-0.16-0.25-0.35-0.33-0.57
		s-0.14-0.44-0.17-0.67s-0.04-0.46-0.02-0.69s0.06-0.46,0.11-0.67c0.02-0.05,0.04-0.09,0.04-0.14s0.01-0.1,0.03-0.16
		c0.05-0.19,0.1-0.37,0.15-0.54s0.13-0.33,0.22-0.46c-0.05-0.11-0.05-0.22,0-0.35s0.1-0.25,0.16-0.35c0.16-0.45,0.3-0.82,0.41-1.13
		s0.23-0.62,0.34-0.92c0.2-0.53,0.39-1.05,0.56-1.56s0.33-1.07,0.47-1.67c0.09-0.06,0.16-0.1,0.21-0.12
		c0.07-0.02,0.13-0.04,0.18-0.05c0.21,0.11,0.46,0.21,0.74,0.31s0.52,0.15,0.7,0.15c0.09,0.06,0.15,0.1,0.18,0.13
		s0.05,0.06,0.07,0.08c0.13,0.15,0.24,0.31,0.33,0.47s0.12,0.37,0.09,0.62c-0.07,0.11-0.12,0.16-0.16,0.16
		c-0.06,0.23-0.12,0.43-0.18,0.6s-0.13,0.33-0.2,0.49c-0.08,0.18-0.16,0.35-0.23,0.53s-0.13,0.39-0.18,0.65
		c-0.05,0.06-0.08,0.11-0.1,0.16s-0.04,0.1-0.06,0.16s-0.05,0.12-0.08,0.18s-0.07,0.12-0.13,0.17c-0.04,0.3-0.09,0.55-0.17,0.74
		s-0.16,0.38-0.24,0.56c-0.14,0.34-0.27,0.68-0.38,1.02s-0.18,0.73-0.2,1.16c0.06-0.02,0.11-0.04,0.17-0.04s0.1,0,0.15,0
		c0.11,0,0.23,0.02,0.37,0.05c0.35-0.19,0.74-0.3,1.15-0.33s0.83-0.06,1.24-0.07c0.16,0,0.33,0,0.49,0s0.32-0.01,0.46-0.04
		c0.11,0.06,0.17,0.09,0.2,0.1s0.07,0.01,0.13,0.01c0.08,0,0.15,0.01,0.21,0.02c0.14,0.13,0.28,0.22,0.4,0.28s0.26,0.11,0.4,0.16
		c0.13,0.05,0.25,0.1,0.38,0.15s0.24,0.13,0.36,0.22l0.12,0.76c0.08,0.11,0.12,0.18,0.11,0.21c0,0.09-0.02,0.16-0.07,0.21l0.04,0.19
		c-0.18,0.04-0.3,0.08-0.36,0.12s-0.13,0.1-0.18,0.16c-0.09,0.01-0.16,0.02-0.2,0.02s-0.08,0-0.11,0c-0.16,0-0.36,0.03-0.6,0.09
		c-0.32-0.11-0.64-0.16-0.98-0.16c-0.13,0-0.26,0.01-0.4,0.02s-0.28,0.02-0.42,0.04c-0.14,0.02-0.28,0.04-0.43,0.05
		s-0.3,0.02-0.45,0.02L601.33,277.89z"/>
	<path d="M616.53,272.81c-0.01,0.14,0,0.28,0.04,0.4s0.08,0.25,0.13,0.38s0.1,0.25,0.15,0.38s0.08,0.26,0.11,0.39
		c0.02,0.16,0.02,0.34,0,0.54s-0.06,0.38-0.12,0.56s-0.13,0.35-0.23,0.49s-0.21,0.25-0.33,0.33c-0.16,0.21-0.36,0.38-0.6,0.49
		s-0.45,0.26-0.65,0.42c-0.13,0.08-0.27,0.14-0.43,0.18s-0.32,0.07-0.48,0.11c-0.13,0.07-0.28,0.14-0.46,0.22s-0.36,0.15-0.54,0.21
		s-0.38,0.11-0.56,0.14s-0.35,0.04-0.49,0.03c-0.35,0.13-0.69,0.21-1.03,0.25s-0.72,0.01-1.17-0.08c-0.42,0.06-0.81,0.04-1.17-0.05
		s-0.67-0.24-0.95-0.45s-0.52-0.45-0.72-0.74s-0.37-0.59-0.5-0.91c-0.09-0.67-0.07-1.27,0.07-1.82s0.34-1.05,0.61-1.51
		s0.57-0.89,0.91-1.28s0.67-0.78,0.98-1.15c0.07,0.02,0.13,0.02,0.17-0.01s0.08-0.07,0.11-0.12s0.07-0.1,0.11-0.15
		s0.09-0.08,0.15-0.09c0.08-0.18,0.2-0.31,0.36-0.4s0.28-0.21,0.38-0.38c0.11-0.02,0.19-0.06,0.26-0.11s0.14-0.1,0.2-0.16
		s0.13-0.11,0.2-0.17s0.15-0.09,0.25-0.11v-0.19c0.21-0.09,0.37-0.2,0.47-0.33s0.22-0.27,0.36-0.45c0.11-0.01,0.19-0.02,0.25-0.02
		s0.16-0.01,0.29-0.04c0.09-0.16,0.18-0.29,0.25-0.37s0.19-0.17,0.34-0.26c0.14,0.07,0.3,0.12,0.47,0.14s0.32,0.1,0.45,0.23
		c0.01,0.12,0.05,0.21,0.11,0.27s0.12,0.12,0.19,0.18s0.14,0.11,0.2,0.17s0.11,0.14,0.13,0.25c0.05,0.01,0.08,0.01,0.1-0.02
		s0.05-0.03,0.1-0.02c0.04,0.16,0.08,0.27,0.12,0.33s0.09,0.16,0.14,0.31c-0.06,0.12-0.1,0.24-0.13,0.36s-0.1,0.21-0.22,0.27
		c-0.01,0.08,0.01,0.13,0.07,0.13s0.09,0.04,0.11,0.1c0.01,0.11-0.01,0.18-0.05,0.23c0.28,0.46,0.53,0.94,0.76,1.45
		S616.25,272.35,616.53,272.81z M614.34,274.48c0.05-0.13,0.11-0.23,0.18-0.32s0.12-0.21,0.13-0.37c-0.06-0.09-0.09-0.17-0.11-0.22
		s-0.02-0.14-0.02-0.25c-0.26-0.36-0.48-0.75-0.67-1.17s-0.4-0.81-0.63-1.17c-0.02,0.05-0.06,0.09-0.12,0.14s-0.12,0.04-0.19-0.04
		c-0.02,0.09-0.06,0.16-0.12,0.2s-0.12,0.06-0.19,0.05s-0.14-0.02-0.22-0.05s-0.14-0.07-0.2-0.11c-0.34,0.27-0.68,0.53-1.02,0.79
		s-0.64,0.56-0.91,0.9c-0.05,0.02-0.08,0.03-0.09,0.03s-0.05,0-0.11,0.03c-0.09,0.22-0.21,0.42-0.34,0.61s-0.27,0.37-0.4,0.55
		s-0.24,0.39-0.33,0.6s-0.15,0.46-0.16,0.74c0.2,0.16,0.43,0.26,0.7,0.3s0.55,0.04,0.83,0.02s0.57-0.06,0.84-0.11
		s0.53-0.08,0.76-0.08c0.49-0.12,0.91-0.27,1.27-0.47S613.95,274.68,614.34,274.48z"/>
	<path d="M623.88,267.18c0.49,0.06,0.93,0.16,1.32,0.3s0.71,0.33,0.98,0.56c0.19,0.29,0.37,0.61,0.54,0.95s0.3,0.69,0.39,1.06
		s0.13,0.75,0.12,1.13s-0.09,0.78-0.25,1.18c-0.34,0.42-0.75,0.76-1.24,1.03s-1.01,0.48-1.57,0.64s-1.15,0.3-1.75,0.42
		s-1.19,0.23-1.77,0.35c0.01,0.27,0.01,0.55,0.01,0.85s-0.04,0.6-0.09,0.9s-0.13,0.59-0.24,0.87s-0.25,0.54-0.42,0.77
		c-0.2,0-0.4,0.03-0.62,0.08s-0.4,0.1-0.56,0.13c-0.08-0.05-0.16-0.09-0.22-0.13s-0.16-0.07-0.27-0.08
		c0.02-0.12-0.01-0.24-0.09-0.36s-0.16-0.25-0.25-0.38s-0.14-0.25-0.17-0.37s0.03-0.23,0.17-0.33c-0.08-0.08-0.12-0.19-0.12-0.32
		c0.08-0.14,0.16-0.33,0.22-0.58s0.12-0.49,0.16-0.73s0.05-0.46,0.03-0.66s-0.14-0.35-0.35-0.44c0.01-0.02,0.04-0.04,0.07-0.04
		s0.07-0.01,0.11-0.02c-0.09-0.07-0.15-0.17-0.17-0.3s-0.06-0.24-0.13-0.33c0.02-0.06,0.04-0.11,0.05-0.16s0.05-0.06,0.12-0.05
		c-0.04-0.21-0.03-0.41,0.01-0.6s0.1-0.37,0.18-0.54s0.18-0.34,0.3-0.5s0.23-0.33,0.33-0.49c0.08-0.01,0.13,0,0.15,0.04
		s0.06,0.03,0.11-0.02c0.15-0.12,0.26-0.24,0.32-0.37s0.09-0.28,0.09-0.44c0.08-0.25,0.18-0.5,0.3-0.75s0.25-0.48,0.39-0.69
		s0.3-0.4,0.47-0.56s0.35-0.29,0.54-0.37c0.14-0.12,0.32-0.23,0.53-0.33s0.44-0.18,0.69-0.23s0.5-0.08,0.75-0.09
		s0.48,0.02,0.69,0.08c0.06,0.02,0.09,0.01,0.1-0.04S623.85,267.18,623.88,267.18z M623.16,271.38c0.29-0.13,0.61-0.23,0.94-0.31
		s0.61-0.22,0.83-0.43c-0.14-0.13-0.35-0.24-0.62-0.34s-0.56-0.16-0.88-0.18s-0.64,0-0.96,0.08s-0.6,0.22-0.83,0.43
		c-0.07,0.21-0.13,0.38-0.18,0.5s-0.11,0.27-0.19,0.45c0.02,0.06,0.06,0.1,0.11,0.13s0.09,0.07,0.11,0.13
		c0.27-0.14,0.54-0.22,0.82-0.24S622.88,271.51,623.16,271.38z"/>
	<path d="M636.5,268.19c0.01,0.08,0.01,0.14,0.01,0.18s-0.01,0.08-0.02,0.11s-0.01,0.07-0.01,0.11s0.01,0.1,0.04,0.18
		c-0.25,0.4-0.53,0.67-0.85,0.82s-0.67,0.25-1.05,0.32s-0.76,0.13-1.15,0.2s-0.78,0.22-1.17,0.46c-0.15-0.06-0.29-0.06-0.41,0
		s-0.3,0.08-0.54,0.05c-0.07,0.07-0.16,0.12-0.26,0.15s-0.21,0.06-0.32,0.1c0.05,0.11,0.07,0.21,0.06,0.33s0.01,0.2,0.04,0.27
		c0.41,0.04,0.86,0.03,1.36-0.02s0.99-0.08,1.47-0.09c0.01,0.06,0.01,0.1-0.02,0.11s-0.03,0.05-0.02,0.1
		c0.08,0.06,0.16,0.13,0.25,0.22s0.16,0.17,0.25,0.25s0.17,0.15,0.25,0.2s0.19,0.07,0.31,0.06c0.05,0.09,0.08,0.2,0.1,0.31
		s0,0.23-0.04,0.34c-0.19,0.13-0.38,0.26-0.56,0.4s-0.38,0.25-0.59,0.36s-0.42,0.19-0.65,0.25s-0.48,0.09-0.76,0.08
		c-0.06,0-0.1,0-0.13,0s-0.07-0.02-0.11-0.05c-0.09,0.06-0.23,0.08-0.4,0.05s-0.3-0.01-0.4,0.05c-0.13-0.06-0.28-0.08-0.47-0.08
		s-0.34-0.01-0.48-0.06c-0.19,0.25-0.36,0.51-0.51,0.79s-0.29,0.58-0.4,0.9c0.4,0.06,0.73,0.08,0.99,0.07s0.51-0.03,0.75-0.06
		s0.47-0.06,0.72-0.09s0.56-0.04,0.93-0.03c0.23-0.13,0.51-0.21,0.83-0.25s0.62-0.11,0.89-0.2c0.09,0.04,0.18,0.1,0.25,0.18
		s0.14,0.17,0.2,0.25s0.13,0.14,0.2,0.2s0.16,0.08,0.26,0.07c0.05,0.05,0.08,0.1,0.1,0.17s0.03,0.13,0.04,0.18s0.03,0.11,0.06,0.15
		s0.08,0.06,0.15,0.04c-0.18,0.39-0.38,0.68-0.61,0.89s-0.49,0.36-0.78,0.47s-0.62,0.19-0.98,0.25s-0.75,0.13-1.19,0.21
		c-0.11,0.02-0.19,0.02-0.26-0.01s-0.15-0.04-0.25-0.04c-0.27,0.06-0.59,0.11-0.97,0.16s-0.76,0.06-1.14,0.05s-0.76-0.06-1.11-0.15
		s-0.64-0.24-0.86-0.47c-0.09-0.08-0.16-0.18-0.18-0.29s-0.11-0.2-0.24-0.25c-0.01-0.15-0.04-0.32-0.07-0.51s-0.07-0.38-0.11-0.59
		s-0.06-0.41-0.08-0.61s-0.01-0.38,0.03-0.54c0.04-0.18,0.11-0.33,0.22-0.47s0.15-0.29,0.11-0.46c0.06-0.01,0.09-0.04,0.11-0.1
		s0.06-0.07,0.14-0.06c0.07-0.21,0.15-0.41,0.23-0.6s0.17-0.37,0.25-0.54s0.18-0.35,0.26-0.54s0.17-0.38,0.25-0.61
		c-0.16-0.15-0.28-0.32-0.36-0.5s-0.13-0.36-0.17-0.54s-0.06-0.37-0.09-0.56s-0.06-0.39-0.12-0.59c0.12-0.18,0.26-0.32,0.43-0.43
		s0.35-0.2,0.55-0.27s0.42-0.13,0.65-0.18s0.48-0.1,0.74-0.16c0.47-0.15,0.89-0.27,1.26-0.35s0.73-0.15,1.09-0.2s0.73-0.1,1.12-0.15
		s0.83-0.12,1.32-0.21c0.11,0.11,0.21,0.16,0.3,0.16c0.05-0.11,0.1-0.14,0.17-0.1s0.09,0.01,0.08-0.1c0.12,0.2,0.27,0.37,0.45,0.5
		S636.28,268.09,636.5,268.19z"/>
	<path d="M638.73,276.25c-0.13,0.47-0.24,0.82-0.34,1.06s-0.25,0.49-0.45,0.75c-0.15-0.02-0.26-0.01-0.32,0.05s-0.12,0.11-0.19,0.16
		c-0.11,0.02-0.18,0.02-0.23,0s-0.09-0.05-0.12-0.08s-0.08-0.06-0.13-0.09s-0.13-0.04-0.24-0.04c-0.02-0.09-0.05-0.18-0.08-0.26
		s-0.11-0.11-0.24-0.09c0.02-0.09,0.03-0.17,0.02-0.24s-0.03-0.12-0.04-0.18s-0.03-0.11-0.04-0.16s-0.01-0.12,0.02-0.2
		c-0.06,0-0.11-0.04-0.14-0.12s-0.08-0.16-0.12-0.25c0.04-0.21,0.07-0.41,0.11-0.6s0.08-0.36,0.13-0.53s0.1-0.33,0.13-0.49
		s0.02-0.33-0.05-0.51c0.05,0.04,0.08,0.03,0.11-0.03s0.04-0.12,0.05-0.21s0.02-0.18,0.02-0.26s-0.01-0.16-0.02-0.22
		c0.12-0.3,0.21-0.62,0.29-0.94s0.15-0.64,0.21-0.96s0.13-0.63,0.2-0.93s0.16-0.59,0.28-0.84c0.13-0.02,0.27-0.01,0.43,0.04
		s0.25,0.12,0.29,0.2c0.3-0.23,0.57-0.52,0.81-0.85s0.47-0.66,0.72-0.98s0.52-0.6,0.82-0.84s0.68-0.39,1.13-0.44
		c0.23,0.18,0.5,0.35,0.78,0.54s0.52,0.42,0.71,0.71c0.09,0.05,0.17,0.1,0.24,0.15s0.14,0.11,0.24,0.17v0.21
		c0.14,0.13,0.25,0.28,0.34,0.45s0.17,0.35,0.24,0.54s0.14,0.39,0.21,0.58s0.15,0.38,0.25,0.55c-0.02,0.06-0.04,0.11-0.04,0.15
		s0.01,0.08,0.03,0.13s0.03,0.09,0.04,0.14s0.01,0.11,0,0.19c-0.04,0.52-0.2,0.93-0.5,1.25s-0.66,0.58-1.08,0.78
		s-0.87,0.38-1.35,0.52s-0.91,0.29-1.3,0.46c0,0.05,0.02,0.07,0.06,0.07s0.06,0.03,0.04,0.09c0.28,0.18,0.5,0.32,0.67,0.42
		s0.32,0.19,0.47,0.26s0.3,0.13,0.47,0.18s0.41,0.11,0.71,0.18s0.54,0.13,0.71,0.17s0.33,0.08,0.47,0.11s0.28,0.05,0.43,0.07
		s0.35,0.04,0.62,0.06c0.11,0.11,0.2,0.23,0.27,0.38s0.13,0.29,0.15,0.44s0.03,0.29,0.02,0.42s-0.05,0.24-0.12,0.33
		c0.01,0.04,0.04,0.05,0.08,0.04s0.08,0,0.13,0.01c-0.07,0.05-0.13,0.11-0.18,0.18s-0.09,0.14-0.14,0.21s-0.1,0.13-0.16,0.18
		s-0.14,0.08-0.25,0.1c-0.36,0.14-0.82,0.15-1.37,0.03s-1.25-0.35-2.09-0.68c-0.42-0.16-0.76-0.31-1.03-0.43s-0.49-0.25-0.69-0.37
		s-0.37-0.25-0.53-0.4S638.96,276.45,638.73,276.25z M641.25,270.22c-0.13,0.19-0.27,0.36-0.43,0.51s-0.31,0.31-0.46,0.47
		s-0.28,0.33-0.4,0.53s-0.2,0.42-0.25,0.68c0.41-0.05,0.84-0.16,1.28-0.34s0.87-0.35,1.27-0.52c-0.05-0.36-0.17-0.66-0.38-0.88
		S641.47,270.29,641.25,270.22z"/>
</g>
</svg>
