<?xml version="1.0" encoding="utf-8"?>
<!-- Generator: Adobe Illustrator 24.1.1, SVG Export Plug-In . SVG Version: 6.00 Build 0)  -->
<svg version="1.1" id="Layer_1" xmlns="http://www.w3.org/2000/svg" xmlns:xlink="http://www.w3.org/1999/xlink" x="0px" y="0px"
	 viewBox="0 0 512 512" style="enable-background:new 0 0 512 512;" xml:space="preserve">
<style type="text/css">
	.st0{fill:#689F63;}
</style>
<g>
	<path class="st0" d="M256.1,512c-6.9,0-13.7-1.8-19.7-5.3l-62.6-37.1c-9.4-5.2-4.8-7.1-1.7-8.1c12.5-4.4,15-5.4,28.3-12.9l4.7,0.3
		l48.1,28.6h5.8l187.6-108.3c1.7-1,2.9-3,2.9-5.1V147.6c0-2.2-1.1-4.1-2.9-5.2L259,34.2h-5.8L65.8,142.5c-1.8,1-3,3.1-3,5.1v216.5
		c0,2.1,1.1,4,2.9,5l51.4,29.7c27.9,13.9,44.9-2.5,44.9-19V166.1c0-3.1,2.4-5.4,5.4-5.4h23.8c3,0,5.4,2.3,5.4,5.4v213.8
		c0,37.2-20.3,58.6-55.6,58.6c-10.9,0-19.4,0-43.2-11.7l-49.2-28.4c-12.2-7-19.7-20.2-19.7-34.2V147.6c0-14.1,7.5-27.2,19.7-34.2
		L236.4,5c11.9-6.7,27.7-6.7,39.4,0l187.6,108.4c12.1,7,19.7,20.1,19.7,34.2v216.5c0,14-7.6,27.1-19.7,34.2L275.8,506.6
		c-6,3.5-12.8,5.3-19.8,5.3L256.1,512z M314,362.8c-82.1,0-99.3-37.7-99.3-69.3c0-3,2.4-5.4,5.4-5.4h24.2c2.7,0,4.9,1.9,5.4,4.6
		c3.7,24.7,14.6,37.1,64.2,37.1c39.5,0,56.4-8.9,56.4-29.9c0-12.1-4.8-21-66.2-27.1c-51.4-5.1-83.1-16.4-83.1-57.5
		c0-37.9,31.9-60.4,85.4-60.4c60.1,0,89.8,20.9,93.6,65.7l-1.5,4.2l-4,1.7h-24.4c-2.5,0-4.7-1.8-5.3-4.2
		c-5.9-26-20.1-34.3-58.6-34.3c-43.2,0-48.2,15-48.2,26.3c0,13.7,5.9,17.7,64.2,25.4c57.7,7.7,85,18.5,85,59
		c0,40.9-34.1,64.3-93.5,64.3L314,362.8z"/>
</g>
</svg>
